<?xml version="1.0" encoding="UTF-8" standalone="no"?>
<svg
   xmlns:dc="http://purl.org/dc/elements/1.1/"
   xmlns:cc="http://creativecommons.org/ns#"
   xmlns:rdf="http://www.w3.org/1999/02/22-rdf-syntax-ns#"
   xmlns:svg="http://www.w3.org/2000/svg"
   xmlns="http://www.w3.org/2000/svg"
   xmlns:sodipodi="http://sodipodi.sourceforge.net/DTD/sodipodi-0.dtd"
   xmlns:inkscape="http://www.inkscape.org/namespaces/inkscape"
   inkscape:version="1.0beta2 (unknown)"
   sodipodi:docname="maintenance2.svg"
   version="1.1"
   width="512"
   viewBox="0 0 512.256 512.256"
   height="512"
   enable-background="new 0 0 512.256 512.256"
   id="Layer_1">
  <metadata
     id="metadata13">
    <rdf:RDF>
      <cc:Work
         rdf:about="">
        <dc:format>image/svg+xml</dc:format>
        <dc:type
           rdf:resource="http://purl.org/dc/dcmitype/StillImage" />
        <dc:title></dc:title>
      </cc:Work>
    </rdf:RDF>
  </metadata>
  <defs
     id="defs11" />
  <sodipodi:namedview
     inkscape:current-layer="Layer_1"
     inkscape:window-maximized="1"
     inkscape:window-y="0"
     inkscape:window-x="0"
     inkscape:cy="256"
     inkscape:cx="16.398577"
     inkscape:zoom="0.54882812"
     showgrid="false"
     id="namedview9"
     inkscape:window-height="969"
     inkscape:window-width="1920"
     inkscape:pageshadow="2"
     inkscape:pageopacity="0"
     guidetolerance="10"
     gridtolerance="10"
     objecttolerance="10"
     borderopacity="1"
     inkscape:document-rotation="0"
     bordercolor="#666666"
     pagecolor="#ffffff" />
  <path
     style="fill:#3c739a;fill-opacity:1"
     id="path2"
     d="m256.128 110.158c-80.488 0-145.97 65.482-145.97 145.97s65.482 145.97 145.97 145.97 145.97-65.482 145.97-145.97-65.482-145.97-145.97-145.97zm0 261.94c-63.946 0-115.97-52.024-115.97-115.97s52.024-115.97 115.97-115.97 115.97 52.024 115.97 115.97-52.024 115.97-115.97 115.97z" />
  <path
     style="fill:#3c739a;fill-opacity:1"
     id="path4"
     d="m512.256 315.484v-118.713h-52.036c-4.334-14.931-10.3-29.312-17.824-42.969l36.813-36.813-83.942-83.942-36.813 36.813c-13.657-7.524-28.038-13.489-42.97-17.823v-52.037h-118.713v52.037c-14.931 4.333-29.312 10.299-42.969 17.823l-36.813-36.813-83.942 83.942 36.813 36.813c-7.524 13.657-13.489 28.038-17.823 42.969h-52.037v118.713h52.037c4.334 14.931 10.299 29.313 17.823 42.969l-36.813 36.813 83.942 83.942 36.813-36.813c13.657 7.524 28.038 13.489 42.969 17.823v52.037h118.713v-52.037c14.932-4.334 29.313-10.299 42.97-17.823l36.813 36.813 83.942-83.942-36.813-36.813c7.524-13.657 13.49-28.038 17.824-42.969zm-75.473 79.783-41.517 41.516-32.251-32.251-10.124 6.345c-17.254 10.813-36.015 18.594-55.763 23.126l-11.645 2.672v45.581h-58.713v-45.581l-11.645-2.672c-19.748-4.532-38.509-12.313-55.762-23.126l-10.124-6.345-32.251 32.251-41.516-41.516 32.251-32.251-6.345-10.124c-10.813-17.253-18.594-36.014-23.126-55.762l-2.672-11.645h-45.58v-58.713h45.581l2.672-11.645c4.532-19.748 12.313-38.509 23.126-55.762l6.345-10.124-32.251-32.251 41.516-41.516 32.251 32.251 10.124-6.345c17.255-10.814 36.016-18.595 55.762-23.126l11.645-2.672v-45.582h58.713v45.581l11.645 2.672c19.748 4.532 38.509 12.313 55.763 23.126l10.124 6.345 32.251-32.251 41.517 41.516-32.253 32.251 6.346 10.125c10.814 17.253 18.595 36.014 23.127 55.762l2.673 11.645h45.58v58.713h-45.58l-2.673 11.645c-4.532 19.748-12.313 38.508-23.127 55.762l-6.346 10.125z" />
  <path
     style="fill:#3c739a;fill-opacity:1"
     id="path6"
     d="m314.059 217.015c-5.188 5.188-13.629 5.188-18.818 0-5.188-5.188-5.188-13.63 0-18.817l11.098-11.097-21.213-21.214-11.098 11.098c-13.158 13.158-16.059 32.744-8.71 48.741l-39.591 39.591c-15.997-7.349-35.584-4.447-48.742 8.71l-11.097 11.098 21.214 21.213 11.097-11.098c2.513-2.513 5.855-3.897 9.409-3.897 3.555 0 6.896 1.384 9.41 3.897 2.513 2.513 3.897 5.855 3.897 9.409s-1.384 6.896-3.897 9.408l-11.098 11.097 21.213 21.214 11.098-11.098c13.158-13.157 16.059-32.744 8.71-48.741l39.591-39.592c5.733 2.633 11.926 3.953 18.119 3.953 11.09 0 22.18-4.221 30.622-12.664l11.098-11.098-21.213-21.213z" />
</svg>
