<?xml version="1.0" encoding="UTF-8" standalone="no"?>
<svg
   xmlns:dc="http://purl.org/dc/elements/1.1/"
   xmlns:cc="http://creativecommons.org/ns#"
   xmlns:rdf="http://www.w3.org/1999/02/22-rdf-syntax-ns#"
   xmlns:svg="http://www.w3.org/2000/svg"
   xmlns="http://www.w3.org/2000/svg"
   xmlns:sodipodi="http://sodipodi.sourceforge.net/DTD/sodipodi-0.dtd"
   xmlns:inkscape="http://www.inkscape.org/namespaces/inkscape"
   inkscape:version="1.0beta2 (unknown)"
   sodipodi:docname="responsive.svg"
   xml:space="preserve"
   enable-background="new 0 0 512 512"
   viewBox="0 0 412 247.73"
   height="247.73"
   width="412"
   y="0px"
   x="0px"
   id="Layer_1"
   version="1.1"><metadata
   id="metadata23"><rdf:RDF><cc:Work
       rdf:about=""><dc:format>image/svg+xml</dc:format><dc:type
         rdf:resource="http://purl.org/dc/dcmitype/StillImage" /><dc:title></dc:title></cc:Work></rdf:RDF></metadata><defs
   id="defs21" /><sodipodi:namedview
   inkscape:current-layer="Layer_1"
   inkscape:window-maximized="1"
   inkscape:window-y="0"
   inkscape:window-x="0"
   inkscape:cy="321.29304"
   inkscape:cx="497.88297"
   inkscape:zoom="0.77616018"
   fit-margin-bottom="0"
   fit-margin-right="0"
   fit-margin-left="0"
   fit-margin-top="0"
   showgrid="false"
   id="namedview19"
   inkscape:window-height="969"
   inkscape:window-width="1920"
   inkscape:pageshadow="2"
   inkscape:pageopacity="0"
   guidetolerance="10"
   gridtolerance="10"
   objecttolerance="10"
   borderopacity="1"
   inkscape:document-rotation="0"
   bordercolor="#666666"
   pagecolor="#ffffff" />


<g
   transform="translate(-50,-132.135)"
   style="fill:#3c739a;fill-opacity:1"
   id="g16">
	<path
   inkscape:connector-curvature="0"
   style="fill:#3c739a;fill-opacity:1"
   id="path6"
   d="m 265.229,364.383 c -5.207,-3.826 -5.758,-9.575 -5.758,-9.575 l -1.951,-12.473 h -62.204 l -1.957,12.473 c 0,0 -0.544,5.749 -5.748,9.575 -5.198,3.83 -9.306,7.113 -5.198,7.669 3.955,0.531 41.256,0.048 44.008,0 2.759,0.048 40.052,0.531 44.011,0 4.099,-0.556 -0.01,-3.831 -5.203,-7.669 z" />
	<path
   inkscape:connector-curvature="0"
   style="fill:#3c739a;fill-opacity:1"
   id="path8"
   d="m 120.538,259.694 c 0,-5.77 -4.681,-10.451 -10.452,-10.451 H 60.453 C 54.682,249.243 50,253.924 50,259.694 v 109.718 c 0,5.777 4.682,10.453 10.453,10.453 h 49.637 c 5.768,0 10.452,-4.676 10.452,-10.453 V 259.694 Z m -40.453,1.308 h 10.451 c 0.722,0 1.306,0.583 1.306,1.3 0,0.724 -0.584,1.312 -1.306,1.312 H 80.085 c -0.722,0 -1.308,-0.592 -1.308,-1.312 0.001,-0.725 0.587,-1.3 1.308,-1.3 z m 4.79,112.683 c -2.887,0 -5.229,-2.338 -5.229,-5.227 0,-2.885 2.342,-5.227 5.229,-5.227 2.885,0 5.225,2.334 5.225,5.227 0,2.889 -2.336,5.227 -5.225,5.227 z m 29.134,-14.717 H 56.531 v -87.521 h 57.479 v 87.521 z" />
	<path
   inkscape:connector-curvature="0"
   style="fill:#3c739a;fill-opacity:1"
   id="path10"
   d="M 447.343,189.137 H 339.846 c -8.095,0 -14.657,6.558 -14.657,14.655 v 153.854 c 0,8.096 6.563,14.662 14.657,14.662 h 107.497 c 8.1,0 14.657,-6.566 14.657,-14.662 V 203.789 c -0.004,-8.097 -6.561,-14.652 -14.657,-14.652 z m -74.795,175.016 c -4.047,0 -7.334,-3.274 -7.334,-7.318 0,-4.048 3.287,-7.33 7.334,-7.33 4.04,0 7.315,3.282 7.315,7.33 10e-4,4.044 -3.275,7.318 -7.315,7.318 z m 21.043,0 c -4.04,0 -7.323,-3.274 -7.323,-7.318 0,-4.048 3.283,-7.33 7.323,-7.33 4.052,0 7.326,3.282 7.326,7.33 0,4.044 -3.27,7.318 -7.326,7.318 z m 21.063,0 c -4.052,0 -7.327,-3.274 -7.327,-7.318 0,-4.048 3.275,-7.33 7.327,-7.33 4.043,0 7.322,3.282 7.322,7.33 0,4.044 -3.279,7.318 -7.322,7.318 z m 38.185,-21.167 H 334.35 V 201.954 h 118.489 z" />
	<path
   inkscape:connector-curvature="0"
   style="fill:#3c739a;fill-opacity:1"
   id="path12"
   d="m 358.547,176.778 h 18.017 v -32.629 c 0,-6.639 -5.379,-12.014 -12.014,-12.014 H 88.287 c -6.633,0 -12.014,5.375 -12.014,12.014 v 92.739 h 18.021 v -86.736 h 264.253 z" />
	<path
   inkscape:connector-curvature="0"
   style="fill:#3c739a;fill-opacity:1"
   id="path14"
   d="m 132.899,294.287 v 36.034 H 312.83 v -36.034 z m 93.517,26.257 c -4.548,0 -8.24,-3.693 -8.24,-8.24 0,-4.546 3.692,-8.239 8.24,-8.239 4.549,0 8.24,3.693 8.24,8.239 0,4.546 -3.691,8.24 -8.24,8.24 z" />
</g>
</svg>
