<?xml version="1.0" encoding="UTF-8" standalone="no"?>
<svg
   xmlns:dc="http://purl.org/dc/elements/1.1/"
   xmlns:cc="http://creativecommons.org/ns#"
   xmlns:rdf="http://www.w3.org/1999/02/22-rdf-syntax-ns#"
   xmlns:svg="http://www.w3.org/2000/svg"
   xmlns="http://www.w3.org/2000/svg"
   xmlns:sodipodi="http://sodipodi.sourceforge.net/DTD/sodipodi-0.dtd"
   xmlns:inkscape="http://www.inkscape.org/namespaces/inkscape"
   height="386.84238pt"
   viewBox="0 0 408.28172 386.84237"
   width="408.10242pt"
   version="1.1"
   id="svg22"
   sodipodi:docname="web2.svg"
   inkscape:version="1.0rc1 (09960d6f05, 2020-04-09)">
  <metadata
     id="metadata28">
    <rdf:RDF>
      <cc:Work
         rdf:about="">
        <dc:format>image/svg+xml</dc:format>
        <dc:type
           rdf:resource="http://purl.org/dc/dcmitype/StillImage" />
        <dc:title></dc:title>
      </cc:Work>
    </rdf:RDF>
  </metadata>
  <defs
     id="defs26" />
  <sodipodi:namedview
     inkscape:document-rotation="0"
     pagecolor="#ffffff"
     bordercolor="#666666"
     borderopacity="1"
     objecttolerance="10"
     gridtolerance="10"
     guidetolerance="10"
     inkscape:pageopacity="0"
     inkscape:pageshadow="2"
     inkscape:window-width="1920"
     inkscape:window-height="976"
     id="namedview24"
     showgrid="false"
     inkscape:zoom="0.89272231"
     inkscape:cx="68.459245"
     inkscape:cy="272.84791"
     inkscape:window-x="0"
     inkscape:window-y="27"
     inkscape:window-maximized="1"
     inkscape:current-layer="svg22"
     fit-margin-top="0"
     fit-margin-left="0"
     fit-margin-right="0"
     fit-margin-bottom="0" />
  <g
     fill="#231f20"
     id="g20"
     style="fill:#3c739a;fill-opacity:1"
     transform="matrix(0.85021414,0,0,0.80627548,0,-0.17212227)">
    <path
       d="m 56,40.105469 c 0,4.417969 -3.582031,8 -8,8 -4.417969,0 -8,-3.582031 -8,-8 0,-4.417969 3.582031,-8 8,-8 4.417969,0 8,3.582031 8,8 z m 0,0"
       id="path2"
       style="fill:#3c739a;fill-opacity:1"
       inkscape:connector-curvature="0" />
    <path
       d="m 88,40.105469 c 0,4.417969 -3.582031,8 -8,8 -4.417969,0 -8,-3.582031 -8,-8 0,-4.417969 3.582031,-8 8,-8 4.417969,0 8,3.582031 8,8 z m 0,0"
       id="path4"
       style="fill:#3c739a;fill-opacity:1"
       inkscape:connector-curvature="0" />
    <path
       d="m 120,40.105469 c 0,4.417969 -3.58203,8 -8,8 -4.41797,0 -8,-3.582031 -8,-8 0,-4.417969 3.58203,-8 8,-8 4.41797,0 8,3.582031 8,8 z m 0,0"
       id="path6"
       style="fill:#3c739a;fill-opacity:1"
       inkscape:connector-curvature="0" />
    <path
       d="m 168,32.105469 c -4.41797,0 -8,3.582031 -8,8 0,4.417969 3.58203,8 8,8 h 200 c 4.41797,0 8,-3.582031 8,-8 0,-4.417969 -3.58203,-8 -8,-8 z m 0,0"
       id="path8"
       style="fill:#3c739a;fill-opacity:1"
       inkscape:connector-curvature="0" />
    <path
       d="M 115.35938,392.10547 H 16 V 80.105469 h 352 c 4.41797,0 8,-3.582031 8,-8 0,-4.417969 -3.58203,-8 -8,-8 H 16 v -48 h 376 v 99.359371 c 0,4.41797 3.58203,8 8,8 4.41797,0 8,-3.58203 8,-8 V 8.105469 c 0,-4.417969 -3.58203,-8 -8,-8 H 8 c -4.417969,0 -8,3.582031 -8,8 V 400.10547 c 0,4.41797 3.582031,8 8,8 h 107.35938 c 4.41796,0 8,-3.58203 8,-8 0,-4.41797 -3.58204,-8 -8,-8 z m 0,0"
       id="path10"
       style="fill:#3c739a;fill-opacity:1"
       inkscape:connector-curvature="0" />
    <path
       d="m 477.67969,443.78516 -44,-43.67969 25.76172,-17.19922 c 2.65234,-1.73438 4.03515,-4.87109 3.51953,-8 -0.53516,-3.11719 -2.85547,-5.625 -5.92188,-6.40234 l -107.4375,-28.5586 c -2.75,-0.71484 -5.66797,0.0781 -7.67578,2.08594 -2.00781,2.00781 -2.80078,4.92578 -2.08594,7.67578 L 368,457.14453 c 0.77734,3.06641 3.28516,5.38672 6.39844,5.92188 3.1289,0.51562 6.26953,-0.86719 8,-3.51954 L 400,433.78516 l 44,44 c 1.50781,1.49609 3.55469,2.33203 5.67969,2.32031 2.125,0.0117 4.17187,-0.82422 5.67968,-2.32031 L 478,455.14453 c 1.47266,-1.54297 2.26953,-3.61328 2.20703,-5.74609 -0.0586,-2.13282 -0.96875,-4.15235 -2.52734,-5.61328 z m -28.32032,17.03906 -45.28125,-45.27735 c -1.48828,-1.48046 -3.5,-2.3125 -5.59765,-2.32031 h -0.80078 c -2.375,0.24219 -4.51563,1.53125 -5.83985,3.51953 l -12.80078,19.1211 -20.23828,-76.96094 76.96094,20.23828 -19.1211,12.96094 c -1.98828,1.32422 -3.27734,3.46484 -3.51953,5.83984 -0.21875,2.3711 0.63282,4.71875 2.32032,6.39844 l 45.27734,45.28125 z m 0,0"
       id="path12"
       style="fill:#3c739a;fill-opacity:1"
       inkscape:connector-curvature="0" />
    <path
       d="m 332.48047,420.18359 c -16.6875,6.92969 -34.4375,10.96094 -52.48047,11.92188 v -72 c 11.82812,0.27734 23.63281,1.21094 35.35937,2.80078 4.41797,0.61719 8.50391,-2.46094 9.1211,-6.87891 0.61719,-4.42187 -2.46094,-8.5039 -6.87891,-9.12109 C 305.12891,345.27344 292.57422,344.33984 280,344.10547 v -64 h 80 c -0.40625,12.54687 -1.63281,25.05469 -3.67969,37.4414 -0.73047,4.41797 2.26172,8.58985 6.67969,9.32032 4.41797,0.72656 8.58984,-2.26172 9.32031,-6.6836 2.125,-13.26172 3.35547,-26.65234 3.67969,-40.07812 h 56 c -0.83203,18.01953 -4.72656,35.76562 -11.51953,52.48047 -1.65625,4.0625 0.26953,8.70703 4.32031,10.39843 0.96094,0.41016 1.99219,0.62891 3.03906,0.64063 3.27735,0.004 6.22657,-1.99219 7.44141,-5.03906 C 443.82422,317.46875 448.14453,294.88281 448,272.10547 448.01953,230.80859 433.45703,190.83203 406.87891,159.22656 373.47656,119.26562 324.08594,96.152344 272,96.105469 h -5.76172 C 227.39062,97.378906 190.04297,111.44141 160,136.10547 c -3.42578,2.80469 -3.92578,7.85547 -1.12109,11.28125 2.80859,3.42187 7.85546,3.92578 11.28125,1.11719 13.89843,-11.4336 29.60546,-20.46485 46.48046,-26.71875 -13.34375,14.51953 -23.82031,31.42968 -30.8789,49.83984 -13.64063,-3.87109 -27.00391,-8.65234 -40,-14.32031 -3.17188,-1.33985 -6.84766,-0.50391 -9.1211,2.08203 0,0 -0.40234,0 -0.5625,0.48047 -25.88281,31.58203 -40.019526,71.16406 -39.999995,112 0.0039,40.91406 14.324215,80.53515 40.480465,112 l 0.5625,0.63672 c 33.26953,40.19531 82.69922,63.5039 134.87891,63.60156 22.80469,0.0156 45.39062,-4.44141 66.48047,-13.1211 2.82031,-0.94531 4.88281,-3.3789 5.35156,-6.3164 0.47266,-2.9375 -0.72656,-5.89453 -3.10937,-7.67578 -2.38282,-1.78125 -5.5586,-2.08985 -8.24219,-0.8086 z M 264,431.38672 c -25.51953,-4.08203 -48,-28 -62.48047,-63.20313 20.49609,-4.82031 41.43359,-7.53125 62.48047,-8.07812 z m 0,-87.28125 C 241.0625,344.57812 218.23828,347.5 195.92187,352.82422 188.55078,329.26562 184.53516,304.78516 184,280.10547 h 80 z m -151.60156,-64 H 168 c 0.5,26.16797 4.70312,52.1289 12.48047,77.12109 -11.85547,3.46094 -23.5,7.60157 -34.87891,12.39844 -19.98437,-25.73047 -31.57422,-56.98047 -33.20312,-89.51953 z M 342,176.10547 c -20.34375,4.75781 -41.11719,7.4375 -62,8 v -71.19922 c 25.28125,4.23828 47.51953,28.23828 62,63.19922 z m -78,88 h -80 c 0.5,-24.76953 4.54297,-49.33594 12,-72.96094 22.28125,5.40235 45.07812,8.40625 68,8.96094 z m 16,-64 c 22.75,-0.48828 45.38281,-3.38672 67.51953,-8.64063 7.42969,23.51954 11.46875,47.98047 12,72.64063 H 280 Z m 152,64 h -56 c -0.47656,-26.13672 -4.65234,-52.07422 -12.39844,-77.03906 12.02344,-3.45313 23.83203,-7.6211 35.35938,-12.48047 19.92578,25.75 31.45703,57 33.03906,89.51953 z M 388,161.78516 c -9.76172,3.92578 -19.72266,7.34375 -29.83984,10.24218 -7.01563,-18.54296 -17.55469,-35.55078 -31.03907,-50.08203 22.92578,8.51172 43.60938,22.13672 60.48047,39.83985 z M 264,112.82422 v 71.28125 c -21.04688,-0.52344 -41.98047,-3.20313 -62.48047,-8 C 216,140.82422 238.48047,116.90625 264,112.82422 Z m -96,151.28125 h -56 c 1.65234,-32.50781 13.17969,-63.73438 33.03906,-89.51953 11.40625,4.79687 23.08203,8.9375 34.96094,12.39844 -7.62891,25.01171 -11.66797,50.97656 -12,77.12109 z m -11.60156,118.32031 c 9.60937,-3.85937 19.41015,-7.22265 29.36328,-10.08203 7.03515,18.31641 17.45703,35.14453 30.71875,49.60156 -22.77735,-8.42187 -43.32813,-21.9414 -60.08203,-39.51953 z m 0,0"
       id="path14"
       style="fill:#3c739a;fill-opacity:1"
       inkscape:connector-curvature="0" />
    <path
       d="m 456.64062,195.14453 c 1.22657,2.98828 4.12891,4.94531 7.35938,4.96094 1.05078,0.0273 2.08984,-0.19141 3.03906,-0.64063 4.05078,-1.69531 5.97656,-6.33593 4.32031,-10.39843 -8.23437,-19.90625 -19.45703,-38.4375 -33.28125,-54.96094 -2.93359,-2.625 -7.34375,-2.72266 -10.39453,-0.23438 -3.04687,2.49219 -3.83203,6.83594 -1.84375,10.23438 12.78516,15.35937 23.17188,32.57031 30.80078,51.03906 z m 0,0"
       id="path16"
       style="fill:#3c739a;fill-opacity:1"
       inkscape:connector-curvature="0" />
    <path
       d="m 105.83984,134.10547 c -32.207028,38.77734 -49.835934,87.59375 -49.83984,138 0,4.41797 3.582031,8 8,8 4.417969,0 8,-3.58203 8,-8 -0.04687,-46.75 16.285156,-92.03906 46.16016,-128 2.82812,-3.40235 2.36328,-8.45313 -1.03907,-11.28125 -3.40234,-2.82813 -8.45312,-2.35938 -11.28125,1.04297 z m 0,0"
       id="path18"
       style="fill:#3c739a;fill-opacity:1"
       inkscape:connector-curvature="0" />
  </g>
</svg>
